<svg width="16" height="16" viewBox="0 0 16 16" fill="none" xmlns="http://www.w3.org/2000/svg">
<path fill-rule="evenodd" clip-rule="evenodd" d="M14.8512 2.45119C14.9367 2.36578 15.0045 2.26436 15.0509 2.15273C15.0972 2.04109 15.1211 1.92143 15.1211 1.80056C15.1212 1.6797 15.0975 1.56 15.0513 1.44831C15.0051 1.33661 14.9374 1.23511 14.852 1.14959C14.7666 1.06408 14.6651 0.996222 14.5535 0.9499C14.4419 0.903578 14.3222 0.879699 14.2013 0.879625C14.0805 0.87955 13.9608 0.903283 13.8491 0.949467C13.7374 0.995651 13.6359 1.06338 13.5504 1.14879L7.99996 6.69919L2.45116 1.14879C2.27846 0.976086 2.04421 0.879059 1.79996 0.879059C1.55572 0.879059 1.32147 0.976086 1.14876 1.14879C0.976055 1.3215 0.879028 1.55575 0.879028 1.79999C0.879028 2.04424 0.976055 2.27849 1.14876 2.45119L6.69916 7.99999L1.14876 13.5488C1.06325 13.6343 0.995412 13.7358 0.94913 13.8476C0.902849 13.9593 0.879028 14.0791 0.879028 14.2C0.879028 14.3209 0.902849 14.4407 0.94913 14.5524C0.995412 14.6642 1.06325 14.7657 1.14876 14.8512C1.32147 15.0239 1.55572 15.1209 1.79996 15.1209C1.9209 15.1209 2.04066 15.0971 2.15239 15.0508C2.26412 15.0045 2.36565 14.9367 2.45116 14.8512L7.99996 9.30079L13.5504 14.8512C13.7231 15.0237 13.9572 15.1205 14.2013 15.1204C14.4454 15.1202 14.6795 15.0231 14.852 14.8504C15.0245 14.6777 15.1213 14.4435 15.1211 14.1994C15.121 13.9553 15.0239 13.7213 14.8512 13.5488L9.30076 7.99999L14.8512 2.45119Z" fill="#fff"/>
</svg>
