<svg width="14" height="19" viewBox="0 0 14 19" fill="none" xmlns="http://www.w3.org/2000/svg">
<path d="M7 12C6.16667 12 5.45833 11.7083 4.875 11.125C4.29167 10.5417 4 9.83333 4 9V3C4 2.16667 4.29167 1.45833 4.875 0.875C5.45833 0.291667 6.16667 0 7 0C7.83333 0 8.54167 0.291667 9.125 0.875C9.70833 1.45833 10 2.16667 10 3V9C10 9.83333 9.70833 10.5417 9.125 11.125C8.54167 11.7083 7.83333 12 7 12ZM6 19V15.925C4.26667 15.6917 2.83333 14.9167 1.7 13.6C0.566666 12.2833 0 10.75 0 9H2C2 10.3833 2.48767 11.5623 3.463 12.537C4.43767 13.5123 5.61667 14 7 14C8.38333 14 9.56267 13.5123 10.538 12.537C11.5127 11.5623 12 10.3833 12 9H14C14 10.75 13.4333 12.2833 12.3 13.6C11.1667 14.9167 9.73333 15.6917 8 15.925V19H6Z" fill="#DD1313"/>
</svg>
